<svg xmlns="http://www.w3.org/2000/svg" viewBox="0 0 364.464 364.464" fill="#f1f1f1"><path d="M350.326 136.654a5.92 5.92 0 00-7.6-1.04l-15.52 10v-126c-.462-7.187-6.662-12.639-13.849-12.177l-.231.017H43.286c-7.178-.589-13.474 4.752-14.063 11.929l-.017.231v120.96l-7.44-4.8a5.92 5.92 0 00-8 1.04 60.799 60.799 0 00-13.76 39.36v124.96c.32 27.04 15.04 55.92 56.24 55.92h252.16c27.04 0 56-14.72 56-56v-124.88a55.444 55.444 0 00-14.08-39.52zm-307.04-117.2h270c1.28 0 2 .48 2 0v134.16l-132.96 86.24-141.04-91.44-.16-128.24a2.963 2.963 0 012.16-.72zm-28.96 295.04a57.523 57.523 0 01-1.68-13.36l-.24-124.96a51.366 51.366 0 017.52-27.2l115.04 74.56-120.64 90.96zm294.08 30.56l-.08-.08H56.246c-20.96 0-32-8.88-37.68-18.96l127.04-95.76 33.44 21.68a6 6 0 002.56.64 6 6 0 002.56-.64l32.56-21.12 127.52 96a43.999 43.999 0 01-35.84 18.24zm43.92-168.96l-.08 124.96a57.73 57.73 0 01-1.76 14.4l-121.52-91.44 115.84-75.12a46.646 46.646 0 017.52 27.2z"/><path d="M207.312 55.108c-27.04-13.888-60.218-3.226-74.106 23.814a55.04 55.04 0 00-6.08 25.172c.176 30.348 24.851 54.845 55.2 54.8 4.48.005 8.942-.56 13.28-1.68a5.28 5.28 0 003.84-2.56 5.202 5.202 0 00.48-4.4 4.64 4.64 0 00-1.84-3.2 5.92 5.92 0 00-4.88-.88 38.55 38.55 0 01-10.8 1.12c-24.035.044-43.556-19.405-43.6-43.44s19.405-43.556 43.44-43.6c24.035-.044 43.556 19.405 43.6 43.44a41.359 41.359 0 01-4.88 19.92 14.24 14.24 0 01-6.88 6.56h-1.2c-1.68 0-1.76-4.4-1.76-4.4v-21.92c.84-15.972-11.426-29.601-27.398-30.442-15.972-.84-29.601 11.426-30.442 27.398a29.139 29.139 0 000 3.043c-.313 16.39 12.653 29.964 29.04 30.4a27.037 27.037 0 0017.52-6.32v.4a15.04 15.04 0 002.8 8.48 12.237 12.237 0 0010.24 4.88 12.55 12.55 0 003.6 0 26.24 26.24 0 0014.64-12v-.48c13.887-27.039 3.226-60.217-23.814-74.105zm-24.986 67.466l.08.08c-9.804-.295-17.513-8.481-17.218-18.286.004-.145.01-.29.018-.434-.453-9.929 7.194-18.363 17.12-18.88 9.942.559 17.635 8.926 17.36 18.88.315 9.927-7.436 18.25-17.36 18.64z"/></svg>